# AST/ASF file generated using VICON BodyLanguage
# -----------------------------------------------
:version 1.10
:name VICON
:units
  mass 1.0
  length 0.45
  angle deg
:documentation
   .ast/.asf automatically generated from VICON data using
   VICON BodyBuilder and BodyLanguage model FoxedUp or BRILLIANT.MOD
:root
   order TX TY TZ RX RY RZ
   axis XYZ
   position 0 0 0  
   orientation 0 0 0 
:bonedata
  begin
     id 1 
     name lhipjoint
     direction 0.64773 -0.699417 0.302095 
     length 2.48597 
     axis 0 0 0  XYZ
  end
  begin
     id 2 
     name lfemur
     direction 0.34202 -0.939693 0  
     length 6.71947  
     axis 0 0 20  XYZ
    dof rx ry rz
    limits (-160.0 20.0)
           (-70.0 70.0)
           (-60.0 70.0)
  end
  begin
     id 3 
     name ltibia
     direction 0.34202 -0.939693 0   
     length 8.08777   
     axis 0 0 20   XYZ
    dof rx
    limits (-10.0 170.0)
  end
  begin
     id 4 
     name lfoot
     direction 0.0808503 -0.222134 0.971658   
     length 2.08264   
     axis -90 7.62852e-016 20   XYZ
    dof rx rz
    limits (-45.0 90.0)
           (-70.0 20.0)
  end
  begin
     id 5 
     name ltoes
     direction 1.53502e-011 -4.22007e-011 1   
     length 1.04662   
     axis -90 7.62852e-016 20   XYZ
    dof rx
    limits (-90.0 20.0)
  end
  begin
     id 6 
     name rhipjoint
     direction -0.610924 -0.726792 0.313919   
     length 2.39233  
     axis 0 0 0  XYZ 
  end
  begin
     id 7 
     name rfemur
     direction -0.34202 -0.939693 0   
     length 6.96955   
     axis 0 0 -20   XYZ
    dof rx ry rz
    limits (-160.0 20.0)
           (-70.0 70.0)
           (-70.0 60.0)
  end
  begin
     id 8 
     name rtibia
     direction -0.34202 -0.939693 0   
     length 8.19584   
     axis 0 0 -20   XYZ
    dof rx
    limits (-10.0 170.0)
 end
 begin
     id 9 
     name rfoot
     direction -0.077777 -0.213691 0.9738   
     length 2.07539  
     axis -90 -7.62852e-016 -20   XYZ
    dof rx rz
    limits (-45.0 90.0)
           (-20.0 70.0)
  end
  begin
     id 10 
     name rtoes
     direction -1.53558e-011 -4.22006e-011 1   
     length 1.04381   
     axis -90 -7.62852e-016 -20   XYZ
    dof rx
    limits (-90.0 20.0)
  end
  begin
     id 11 
     name lowerback
     direction -0.00971646 0.996074 0.0879841   
     length 1.67643   
     axis 0 0 0   XYZ
    dof rx ry rz
    limits (-20.0 45.0)
           (-30.0 30.0)
           (-30.0 30.0)
  end
  begin
     id 12 
     name upperback
     direction 0.0127391 0.991676 0.128127   
     length 1.63741   
     axis 0 0 0   XYZ
    dof rx ry rz
    limits (-20.0 45.0)
           (-30.0 30.0)
           (-30.0 30.0)
  end
  begin
     id 13 
     name thorax
     direction 0.0167583 0.996049 0.0872067   
     length 1.65931   
     axis 0 0 0   XYZ
    dof rx ry rz
    limits (-20.0 45.0)
           (-30.0 30.0)
           (-30.0 30.0)
  end
  begin
     id 14 
     name lowerneck
     direction -0.0317829 0.998312 0.0486079   
     length 1.79021   
     axis 0 0 0   XYZ
    dof rx ry rz
    limits (-20.0 45.0)
           (-30.0 30.0)
           (-30.0 30.0)
  end
  begin
     id 15 
     name upperneck
     direction 0.0896851 0.972452 -0.215159   
     length 1.78797   
     axis 0 0 0   XYZ
    dof rx ry rz
    limits (-20.0 45.0)
           (-30.0 30.0)
           (-30.0 30.0)
  end
  begin
     id 16
     name head
     direction 0.0310949 0.996503 -0.0775582  
     length 1.81549  
     axis 0 0 0   XYZ
    dof rx ry rz
    limits (-20.0 45.0)
           (-30.0 30.0)
           (-30.0 30.0)
  end
  begin
     id 17 
     name lclavicle
     direction 0.853638 0.502051 -0.138733  
     length 3.31627  
     axis 0 0 0   XYZ
    dof ry rz
    limits (-20.0 10.0)
           (0.0 20.0)
  end
  begin
     id 18 
     name lhumerus
     direction 1 -4.48962e-011 -1.41788e-018   
     length 5.54893   
     axis 180 -30 -90   XYZ
    dof rx ry rz
    limits (-60.0 90.0)
           (-90.0 90.0)
           (-90.0 90.0)
  end
  begin
     id 19
     name lradius
     direction 1 -4.48962e-011 -4.95754e-027   
     length 3.02898   
     axis 180 -30 -90   XYZ
    dof rx
    limits (-10.0 170.0)
  end
  begin
     id 20
     name lwrist
     direction 1 -4.48952e-011 -1.03764e-026   
     length 1.51449   
     axis 9.09556e-015 90 90   XYZ
    dof ry
    limits (-180.0 0.0)
 end
  begin
     id 21 
     name lhand
     direction 1 -4.4902e-011 -2.07528e-026   
     length 0.640951   
     axis 1.3242e-014 90 90   XYZ
    dof rx rz
    limits (-90.0 90.0)
           (-45.0 45.0)
  end
  begin
     id 22 
     name lfingers
     direction 1 -4.49014e-011 -4.15056e-026   
     length 0.516751   
     axis 2.64841e-014 90 90   XYZ
    dof rx
    limits (0.0 90.0)
  end
  begin
     id 23
     name lthumb
     direction 0.707107 -6.35008e-011 0.707107   
     length 0.741954   
     axis -90 45 2.85299e-015   XYZ
    dof rx rz
    limits (-45.0 45.0)
           (-45.0 45.0)
  end
  begin
     id 24 
     name rclavicle
     direction -0.888531 0.455324 -0.0565039   
     length 3.20126  
     axis 0 0 0   XYZ 
    dof ry rz
    limits (-10.0 20.0)
           (-20.0 0.0)
  end
  begin
     id 25 
     name rhumerus
     direction -1 -4.48946e-011 -8.98298e-028  
     length 5.3519   
     axis 180 30 90   XYZ
    dof rx ry rz
    limits (-90.0 60.0)
           (-90.0 90.0)
           (-90.0 90.0)
  end
  begin
     id 26 
     name rradius
     direction -1 -4.4899e-011 -3.18779e-027   
     length 3.02531   
     axis 180 30 90   XYZ
    dof rx
    limits (-10.0 170.0)
  end
  begin
     id 27 
     name rwrist
     direction -1 -4.4897e-011 -1.03764e-026   
     length 1.51266   
     axis 9.09556e-015 -90 -90   XYZ
    dof ry
    limits (-180.0 0.0)
  end
  begin
     id 28
     name rhand
     direction -1 -4.48941e-011 -2.07528e-026   
     length 0.78389   
     axis 1.3242e-014 -90 -90   XYZ
    dof rx rz
    limits (-90.0 90.0)
           (-45.0 45.0)
  end
  begin
     id 29
     name rfingers
     direction -1 -4.49012e-011 -4.15056e-026   
     length 0.631992   
     axis 2.64841e-014 -90 -90   XYZ
    dof rx
    limits (0.0 90.0)
  end
  begin
     id 30
     name rthumb
     direction -0.707107 -6.3496e-011 0.707107   
     length 0.907418   
     axis -90 -45 -2.85299e-015   XYZ
    dof rx rz
    limits (-45.0 45.0)
           (-45.0 45.0)
  end
:hierarchy
  begin
    root lhipjoint rhipjoint lowerback
    lhipjoint lfemur
    lfemur ltibia
    ltibia lfoot
    lfoot ltoes
    rhipjoint rfemur
    rfemur rtibia
    rtibia rfoot
    rfoot rtoes
    lowerback upperback
    upperback thorax
    thorax lowerneck lclavicle rclavicle
    lowerneck upperneck
    upperneck head
    lclavicle lhumerus
    lhumerus lradius
    lradius lwrist
    lwrist lhand lthumb
    lhand lfingers
    rclavicle rhumerus
    rhumerus rradius
    rradius rwrist
    rwrist rhand rthumb
    rhand rfingers
  end

#!OML:ASF E:\Style3\Style3.ASF
:FULLY-SPECIFIED
:DEGREES
1507
root -1.28235 17.384 0.565641 -568.177 98.7207 -585.282
lowerback 16.974 -1.64367 2.79428
upperback -0.149096 -0.16307 10.3843
thorax -9.78072 0.279097 10.0306
lowerneck -1.1915 7.54314 7.61511
upperneck -11.3654 9.62294 -10.8529
head -2.23634 5.00544 -4.60312
rclavicle 7.07673e-014 -5.725e-014
rhumerus 7.02477 -28.6102 -5.84168
rradius 108.541
rwrist -75.4411
rhand -29.668 17.5134
rfingers 7.12502
rthumb -2.99688 -12.4453
lclavicle 7.07673e-014 -5.725e-014
lhumerus -69.6807 -47.3871 87.7274
lradius 93.2241
lwrist 98.5414
lhand 19.367 40.0616
lfingers 7.12502
lthumb 43.9449 63.965
rfemur -33.994 3.17292 20.6349
rtibia 29.9546
rfoot -12.6602 -2.6075
rtoes -24.6853
lfemur -34.1952 5.93407 -10.6734
ltibia 36.2811
lfoot -15.9027 12.73
ltoes -23.2656
1508
root -1.28126 17.3865 0.573306 -569.567 98.5417 -586.625
lowerback 16.9716 -1.70036 2.48419
upperback -0.153987 -0.342824 10.1684
thorax -9.75146 0.191852 10.0054
lowerneck -1.10173 7.62114 7.4224
upperneck -12.0097 9.71382 -10.8666
head -2.44232 5.07341 -4.60393
rclavicle -2.06736e-014 2.54444e-014
rhumerus 5.10328 -25.4168 -5.96841
rradius 106.757
rwrist -74.2869
rhand -29.426 17.9215
rfingers 7.12502
rthumb -2.76317 -12.0403
lclavicle -2.06736e-014 2.54444e-014
lhumerus -68.8051 -46.7597 87.7438
lradius 91.9851
lwrist 98.3512
lhand 18.973 39.9808
lfingers 7.12502
lthumb 43.5771 64.0196
rfemur -33.957 3.07819 20.7034
rtibia 30.0286
rfoot -12.7324 -2.70593
rtoes -24.0682
lfemur -34.1696 5.82112 -10.5869
ltibia 36.2255
lfoot -15.8209 12.5739
ltoes -23.0751
1509
root -1.27721 17.3927 0.578993 -570.748 98.4889 -587.738
lowerback 16.9777 -1.70771 2.20735
upperback -0.164113 -0.451176 9.93333
thorax -9.74423 0.137175 9.92101
lowerneck -1.07584 7.7206 7.31791
upperneck -12.4922 9.83676 -10.8773
head -2.58333 5.14983 -4.60897
rclavicle -4.77083e-015 3.18055e-015
rhumerus 3.31232 -22.2333 -6.29324
rradius 104.766
rwrist -73.1793
rhand -28.6206 17.2427
rfingers 7.12502
rthumb -1.9853 -12.7278
lclavicle -4.77083e-015 3.18055e-015
lhumerus -68.0487 -46.1782 87.8714
lradius 90.8237
lwrist 98.2156
lhand 18.4392 39.8564
lfingers 7.12502
lthumb 43.0785 64.0746
rfemur -33.9251 3.08083 20.8021
rtibia 30.0698
rfoot -12.7446 -2.71451
rtoes -23.0021
lfemur -34.0857 5.82248 -10.4747
ltibia 36.1909
lfoot -15.8004 12.455
ltoes -23.3156
1510
root -1.27364 17.3942 0.583393 -571.44 98.4535 -588.386
lowerback 17.0337 -1.68313 1.92527
upperback -0.231317 -0.523147 9.61409
thorax -9.83487 0.0990768 9.74026
lowerneck -1.01811 7.80837 7.32618
upperneck -12.8984 9.95559 -10.8057
head -2.70711 5.2142 -4.60619
rclavicle -4.53229e-014 6.36111e-015
rhumerus 1.57296 -18.8598 -6.82671
rradius 102.509
rwrist -71.9433
rhand -27.7322 16.666
rfingers 7.12502
rthumb -1.12722 -13.3108
lclavicle -4.53229e-014 6.36111e-015
lhumerus -67.2556 -45.6484 87.8792
lradius 89.766
lwrist 98.0548
lhand 17.5939 39.9495
lfingers 7.12502
lthumb 42.2874 64.4425
rfemur -33.8492 3.00316 20.9005
rtibia 30.0749
rfoot -12.7496 -2.8317
rtoes -23.4179
lfemur -34.0344 5.82907 -10.408
ltibia 36.1997
lfoot -15.8251 12.328
ltoes -23.2565
1511
root -1.27395 17.3883 0.588202 -572.847 98.4213 -589.766
lowerback 17.0533 -1.67153 1.74086
upperback -0.285385 -0.590175 9.32453
thorax -9.89277 0.0599462 9.53227
lowerneck -1.06081 7.85793 7.17691
upperneck -13.1384 10.0314 -10.592
head -2.78639 5.25295 -4.52607
rclavicle 1.59028e-015 7.95139e-015
rhumerus 0.0316059 -15.4225 -7.53697
rradius 99.9123
rwrist -70.5905
rhand -27.1745 16.7694
rfingers 7.12502
rthumb -0.588659 -13.2096
lclavicle 1.59028e-015 7.95139e-015
lhumerus -66.2413 -45.0596 87.7435
lradius 88.6454
lwrist 97.5417
lhand 16.8962 39.9006
lfingers 7.12502
lthumb 41.6335 64.6122
rfemur -33.7019 2.88209 21.1105
rtibia 30.0492
rfoot -12.7952 -3.06999
rtoes -25.4468
lfemur -34.0738 5.80341 -10.2406
ltibia 36.2594
lfoot -15.8639 12.2395
ltoes -23.6117
1512
root -1.27614 17.3817 0.592692 -574.242 98.4109 -591.146
lowerback 16.9507 -1.65941 1.47051
upperback -0.256018 -0.686626 9.05512
thorax -9.78214 0.00569593 9.39201
lowerneck -1.13162 7.92702 7.05876
upperneck -13.434 10.1331 -10.3908
head -2.87345 5.30465 -4.45544
rclavicle -4.45278e-014 -1.11319e-014
rhumerus -1.31802 -12.0705 -8.54589
rradius 97.1718
rwrist -69.363
rhand -27.1723 16.9706
rfingers 7.12502
rthumb -0.586523 -13.0083
lclavicle -4.45278e-014 -1.11319e-014
lhumerus -65.0928 -44.4762 87.5238
lradius 87.435
lwrist 96.7421
lhand 16.4005 39.6907
lfingers 7.12502
lthumb 41.1683 64.5533
rfemur -33.6009 2.83966 21.2796
rtibia 30.0076
rfoot -12.834 -3.16068
rtoes -25.963
lfemur -34.147 5.83958 -10.083
ltibia 36.3425
lfoot -15.8932 12.1331
ltoes -23.9004
1513
root -1.27979 17.3787 0.598838 -575.52 98.3552 -592.455
lowerback 16.8704 -1.66606 1.11487
upperback -0.282663 -0.819267 8.78653
thorax -9.74039 -0.0589392 9.31939
lowerneck -1.19624 7.98094 6.84387
upperneck -13.7019 10.2283 -10.0326
head -2.96965 5.34941 -4.3227
rclavicle 2.5842e-014 -7.95139e-014
rhumerus -2.56161 -8.64314 -9.73677
rradius 94.4013
rwrist -68.247
rhand -27.4484 16.7485
rfingers 7.12502
rthumb -0.853136 -13.2295
lclavicle 2.5842e-014 -7.95139e-014
lhumerus -64.115 -43.8017 87.3441
lradius 86.2726
lwrist 95.6768
lhand 15.9491 39.4929
lfingers 7.12502
lthumb 40.7442 64.49
rfemur -33.6022 2.80705 21.3932
rtibia 29.9747
rfoot -12.8145 -3.18673
rtoes -25.4958
lfemur -34.2743 5.83377 -9.9606
ltibia 36.4208
lfoot -15.8155 12.0541
ltoes -24.1537
1514
root -1.28319 17.3772 0.605954 -576.573 98.3301 -593.508
lowerback 16.8543 -1.6551 0.736277
upperback -0.365471 -0.928796 8.49031
thorax -9.80132 -0.10833 9.23201
lowerneck -1.18282 8.00928 6.69824
upperneck -13.8837 10.2957 -9.66498
head -3.05252 5.37517 -4.19868
rclavicle -5.32743e-014 -1.09729e-013
rhumerus -3.64 -5.14992 -11.122
rradius 91.2962
rwrist -67.1874
rhand -27.3036 16.3636
rfingers 7.12502
rthumb -0.713323 -13.6149
lclavicle -5.32743e-014 -1.09729e-013
lhumerus -63.3609 -43.0375 87.1869
lradius 85.1916
lwrist 94.1582
lhand 15.292 38.9042
lfingers 7.12502
lthumb 40.1264 64.0919
rfemur -33.5841 2.77143 21.5234
rtibia 29.9611
rfoot -12.7859 -3.27314
rtoes -25.4212
lfemur -34.3236 5.81699 -9.82623
ltibia 36.4594
lfoot -15.9021 11.9046
ltoes -23.8215
1515
root -1.2864 17.3772 0.610407 -577.728 98.2206 -594.633
lowerback 16.8608 -1.62211 0.368622
upperback -0.420161 -1.0102 8.16473
thorax -9.8486 -0.146187 9.09709
lowerneck -1.24307 8.01231 6.5185
upperneck -14.1019 10.332 -9.25804
head -3.14145 5.38543 -4.0562
rclavicle -6.36111e-015 -2.38542e-014
rhumerus -4.56383 -1.74841 -12.5951
rradius 87.919
rwrist -65.9897
rhand -27.5668 15.7989
rfingers 7.12502
rthumb -0.967553 -14.1786
lclavicle -6.36111e-015 -2.38542e-014
lhumerus -62.5278 -42.4162 86.9667
lradius 84.202
lwrist 92.4498
lhand 14.5751 38.204
lfingers 7.12502
lthumb 39.4515 63.5932
rfemur -33.5174 2.65163 21.5842
rtibia 29.9409
rfoot -12.7871 -3.35833
rtoes -25.3656
lfemur -34.3463 5.67141 -9.75833
ltibia 36.4644
lfoot -15.9319 11.8126
ltoes -23.3407
1516
root -1.28882 17.3782 0.616659 -578.826 98.1422 -595.668
lowerback 16.8555 -1.52553 -0.0214187
upperback -0.438916 -1.01184 7.84518
thorax -9.86124 -0.145126 8.96
lowerneck -1.37972 8.00195 6.30402
upperneck -14.2707 10.3531 -8.82026
head -3.20829 5.38729 -3.89384
rclavicle 1.47101e-014 -1.82882e-014
rhumerus -5.3753 1.66929 -14.0919
rradius 84.2813
rwrist -64.7049
rhand -28.6874 15.1462
rfingers 7.12502
rthumb -2.04977 -14.8237
lclavicle 1.47101e-014 -1.82882e-014
lhumerus -61.6391 -41.9426 86.7834
lradius 83.3422
lwrist 91.0062
lhand 13.0345 37.8292
lfingers 7.12502
lthumb 37.9984 63.6288
rfemur -33.3984 2.62891 21.6355
rtibia 29.8908
rfoot -12.7975 -3.48616
rtoes -25.1966
lfemur -34.3293 5.58918 -9.69194
ltibia 36.4626
lfoot -15.7895 11.8061
ltoes -23.6892
1517
root -1.28652 17.3792 0.624429 -579.836 98.2697 -596.545
lowerback 16.8155 -1.366 -0.339211
upperback -0.404889 -0.911051 7.56517
thorax -9.81235 -0.0985839 8.79521
lowerneck -1.43412 7.94968 6.09567
upperneck -14.508 10.3162 -8.44543
head -3.30872 5.36483 -3.75808
rclavicle 3.26007e-014 -2.14687e-014
rhumerus -6.21558 5.15938 -15.581
rradius 80.4577
rwrist -63.5682
rhand -29.4995 14.4162
rfingers 7.12502
rthumb -2.83414 -15.5447
lclavicle 3.26007e-014 -2.14687e-014
lhumerus -60.7989 -41.6384 86.6907
lradius 82.6196
lwrist 89.8702
lhand 10.9756 37.4181
lfingers 7.12502
lthumb 36.0511 63.7221
rfemur -33.1933 2.78322 21.828
rtibia 29.824
rfoot -12.8314 -3.5728
rtoes -25.0727
lfemur -34.1566 5.70924 -9.47826
ltibia 36.4578
lfoot -15.7404 11.7431
ltoes -24.2397
1518
root -1.28625 17.3785 0.627392 -580.888 98.3288 -597.486
lowerback 16.8369 -1.22986 -0.585084
upperback -0.39077 -0.828962 7.23503
thorax -9.81947 -0.0644228 8.54122
lowerneck -1.52964 7.88313 5.89841
upperneck -14.8339 10.2664 -8.03749
head -3.43146 5.3351 -3.61577
rclavicle 1.90833e-014 -1.27222e-014
rhumerus -6.98855 8.60669 -17.1896
rradius 76.3082
rwrist -62.0606
rhand -29.4269 13.2813
rfingers 7.12502
rthumb -2.76401 -16.6806
lclavicle 1.90833e-014 -1.27222e-014
lhumerus -59.9638 -41.4126 86.5369
lradius 81.9781
lwrist 88.8573
lhand 8.60848 37.1895
lfingers 7.12502
lthumb 33.8054 64.0162
rfemur -33.0343 2.78776 21.9822
rtibia 29.7945
rfoot -12.8661 -3.57727
rtoes -24.8532
lfemur -34.0236 5.71473 -9.30383
ltibia 36.4394
lfoot -15.8426 11.6341
ltoes -23.794
